<svg width="23" height="22" viewBox="0 0 23 22" fill="none" xmlns="http://www.w3.org/2000/svg">
<path fill-rule="evenodd" clip-rule="evenodd" d="M9.96151 1.66748C10.8188 0.637042 12.3676 0.59225 13.285 1.53308L13.406 1.66748L17.8137 6.96492H21.1592C22.1436 6.96492 22.9356 7.81645 22.8233 8.82292L22.7202 9.6832L22.6082 10.5132L22.5161 11.1363L22.4097 11.8038L22.2883 12.506L22.1515 13.2331L21.9988 13.9755C21.9185 14.3489 21.832 14.7244 21.7392 15.0964C21.4714 16.169 21.1373 17.1528 20.8057 17.9967L20.5586 18.6027L20.3187 19.1514L20.0927 19.6382C20.0566 19.7138 20.0212 19.7868 19.9869 19.8568L19.7078 20.4066C19.3481 21.0905 18.6724 21.4951 17.9558 21.5533L17.7759 21.5606H5.57924C4.81169 21.5606 4.05698 21.1615 3.66422 20.429L3.40305 19.9234L3.20155 19.508C3.1665 19.4337 3.13077 19.357 3.09449 19.2778L2.87093 18.7744C2.45186 17.7999 1.9907 16.5475 1.62848 15.0964C1.56719 14.8508 1.50881 14.6054 1.45325 14.3613L1.29489 13.6344L1.15276 12.9228L1.02625 12.2339L0.914694 11.575L0.817474 10.9534L0.733952 10.3765L0.63296 9.61069L0.559213 8.98638C0.552453 8.92579 0.546158 8.86827 0.540315 8.81398C0.437643 7.86003 1.14522 7.05402 2.05138 6.97182L2.20415 6.96492H5.55386L9.96151 1.66748ZM9.39765 12.2662C9.24212 11.726 8.70362 11.3765 8.13656 11.4712C7.56951 11.5659 7.17329 12.0714 7.20108 12.6328L7.21513 12.7632L7.77562 16.1315L7.80455 16.2594C7.96007 16.7995 8.49857 17.149 9.06563 17.0543C9.63271 16.9597 10.0289 16.4542 10.0011 15.8927L9.98707 15.7623L9.42658 12.3941L9.39765 12.2662ZM15.231 11.4712C14.6639 11.3765 14.1254 11.726 13.9699 12.2662L13.941 12.3941L13.3805 15.7623C13.2787 16.374 13.6912 16.9524 14.3019 17.0543C14.869 17.149 15.4075 16.7995 15.563 16.2594L15.592 16.1315L16.1524 12.7632C16.2542 12.1516 15.8417 11.5731 15.231 11.4712ZM11.6838 3.105L8.47223 6.96492H14.8954L11.6838 3.105Z" fill="#828282"/>
</svg>
