<svg width="203" height="56" viewBox="0 0 203 56" fill="none" xmlns="http://www.w3.org/2000/svg">
<path fill-rule="evenodd" clip-rule="evenodd" d="M32.2222 1.55595C25.0534 5.78753 25.9258 16.5483 19.2389 19.816C19.2083 15.5143 18.1743 12.4062 16.1953 10.0967C18.8459 7.48742 21.9596 5.16978 25.5647 3.16196C19.1413 5.41576 12.5758 9.67362 7.52307 18.8928C7.03551 18.9717 6.71318 18.7589 6.50288 18.3458C1.69111 7.59945 13.238 -4.32545 32.2216 1.55658L32.2222 1.55595Z" fill="#009933"/>
<path fill-rule="evenodd" clip-rule="evenodd" d="M4.39243 17.4994C4.37553 17.6546 4.36614 17.8123 4.36614 17.9719V27.9747C4.36614 30.365 6.32202 32.3209 8.71226 32.3209C11.1025 32.3209 13.0584 30.365 13.0584 27.9747V17.9719C13.0584 16.861 12.6359 15.8439 11.9437 15.0735C12.8637 13.7773 13.8382 12.5656 14.869 11.4402C16.4463 13.0193 17.4258 15.1961 17.4258 17.5908V28.3565C17.4258 33.1483 13.5053 37.0694 8.71288 37.0694C3.92052 37.0694 0 33.1489 0 28.3565V17.5908C0 14.3512 1.7919 11.5103 4.43374 10.0095C3.89047 12.6169 3.79346 15.0947 4.39243 17.4994V17.4994Z" fill="url(#paint0_linear_158_1107)"/>
<path d="M38.4084 19.1643V22.8589H35.222V29.9827C35.222 31.4291 35.2502 32.2709 35.3122 32.5081C35.3741 32.7453 35.5099 32.9431 35.7303 33.1015C35.9449 33.2542 36.2047 33.333 36.5157 33.333C36.9507 33.333 37.5722 33.1859 38.3915 32.8868L38.7814 36.5025C37.7024 36.9656 36.4819 37.1972 35.115 37.1972C34.2788 37.1972 33.5278 37.0558 32.855 36.7735C32.1828 36.4912 31.6908 36.1238 31.3804 35.6776C31.0637 35.2257 30.8496 34.6211 30.7251 33.8531C30.6293 33.3105 30.578 32.2146 30.578 30.5598V22.8595H28.4425V19.165H30.578V15.6738L35.222 12.9281V19.165H38.4084V19.1643Z" fill="black"/>
<path d="M50.3064 31.1989L54.9504 31.9787C54.3571 33.6792 53.4139 34.9729 52.1314 35.8654C50.8434 36.7523 49.233 37.1986 47.3065 37.1986C44.2503 37.1986 41.9847 36.1984 40.5213 34.1987C39.3635 32.594 38.7814 30.5718 38.7814 28.1258C38.7814 25.2105 39.5443 22.9229 41.064 21.273C42.5836 19.6176 44.5101 18.7927 46.8377 18.7927C49.4477 18.7927 51.5099 19.657 53.0239 21.3857C54.5323 23.1144 55.2552 25.7637 55.1876 29.3344H43.5613C43.595 30.7126 43.9681 31.786 44.6853 32.5545C45.397 33.3231 46.2901 33.7068 47.3516 33.7068C48.0801 33.7068 48.6903 33.509 49.1823 33.1135C49.6792 32.7179 50.0523 32.0795 50.3064 31.1983V31.1989ZM50.5774 26.4873C50.5436 25.1372 50.1987 24.1089 49.5378 23.4085C48.8769 22.7026 48.0745 22.3521 47.1256 22.3521C46.1142 22.3521 45.278 22.7251 44.6171 23.4649C43.9562 24.2047 43.6339 25.2161 43.6457 26.4873H50.5774V26.4873Z" fill="black"/>
<path d="M56.3449 19.1657H60.6159V21.5666C62.1468 19.719 63.9718 18.7927 66.0905 18.7927C67.2145 18.7927 68.1922 19.0243 69.0171 19.4874C69.8476 19.9506 70.5254 20.6509 71.0506 21.5891C71.8248 20.6515 72.6609 19.9506 73.5535 19.4874C74.446 19.0243 75.4011 18.7927 76.4175 18.7927C77.7055 18.7927 78.7958 19.0524 79.694 19.5782C80.5865 20.1033 81.253 20.8719 81.6937 21.8889C82.016 22.6343 82.1737 23.8492 82.1737 25.5272V36.758H77.5297V26.7188C77.5297 24.9732 77.3713 23.8492 77.0496 23.346C76.6203 22.685 75.9537 22.3514 75.0612 22.3514C74.4115 22.3514 73.7957 22.5492 73.2192 22.9448C72.6484 23.346 72.2303 23.928 71.9762 24.6904C71.7221 25.4589 71.5976 26.6675 71.5976 28.323V36.7573H66.9535V27.1307C66.9535 25.4245 66.8691 24.3173 66.7051 23.826C66.5411 23.3291 66.287 22.956 65.9365 22.7132C65.5916 22.4704 65.1172 22.3514 64.5239 22.3514C63.8066 22.3514 63.1626 22.5436 62.5918 22.9279C62.0153 23.3178 61.6085 23.8711 61.36 24.6002C61.1116 25.3287 60.987 26.538 60.987 28.2216V36.758H56.343V19.1657H56.3449Z" fill="black"/>
<path d="M83.5613 36.757H87.9337L88.1371 34.4519H88.2047C89.3914 36.4178 91.2559 37.1301 93.188 37.1301C96.9845 37.1301 100.781 34.1471 100.781 28.1806C100.814 23.0959 97.8996 19.8076 93.9334 19.8076C91.6289 19.8076 89.8996 20.7226 88.9169 22.1465H88.8487V12.6888H83.6965C83.6965 20.5348 84.0445 28.9748 83.5613 36.7564V36.757ZM88.8487 27.2656C88.8487 26.927 88.8831 26.6215 88.9501 26.3167C89.2893 24.8246 90.5774 23.7738 91.9669 23.7738C94.374 23.7738 95.5262 25.8079 95.5262 28.384C95.5262 31.3669 94.17 33.0618 91.9669 33.0618C90.476 33.0618 89.2893 32.011 88.9501 30.6209C88.8825 30.3499 88.8487 30.0451 88.8487 29.7059V27.2649V27.2656Z" fill="black"/>
<path d="M113.276 31.1989L117.92 31.9787C117.326 33.6792 116.383 34.9729 115.101 35.8654C113.813 36.7523 112.202 37.1986 110.276 37.1986C107.22 37.1986 104.954 36.1984 103.491 34.1987C102.333 32.594 101.751 30.5718 101.751 28.1258C101.751 25.2105 102.514 22.9229 104.033 21.273C105.553 19.6176 107.479 18.7927 109.807 18.7927C112.417 18.7927 114.479 19.657 115.993 21.3857C117.502 23.1144 118.224 25.7637 118.157 29.3344H106.53C106.564 30.7126 106.937 31.786 107.655 32.5545C108.366 33.3231 109.259 33.7068 110.321 33.7068C111.049 33.7068 111.66 33.509 112.151 33.1135C112.648 32.7179 113.021 32.0795 113.276 31.1983V31.1989ZM113.547 26.4873C113.513 25.1372 113.168 24.1089 112.507 23.4085C111.846 22.7026 111.044 22.3521 110.095 22.3521C109.083 22.3521 108.247 22.7251 107.586 23.4649C106.925 24.2047 106.603 25.2161 106.615 26.4873H113.547V26.4873Z" fill="black"/>
<path d="M119.703 36.6894V12.4196H124.347V25.2946L129.788 19.0971H135.516L129.517 25.5262L135.957 36.6894H130.94L126.5 28.752L124.347 31.0571V36.6894H119.703Z" fill="#009933"/>
<path d="M140.635 24.5204L136.431 23.775C136.906 22.0576 137.725 20.7864 138.883 19.9615C140.041 19.1366 141.764 18.7241 144.047 18.7241C146.121 18.7241 147.668 18.967 148.685 19.4583C149.697 19.9496 150.414 20.5711 150.827 21.3284C151.239 22.0857 151.448 23.4696 151.448 25.4918L151.38 30.915C151.38 32.4572 151.454 33.5988 151.601 34.333C151.748 35.0671 152.024 35.8526 152.431 36.6888H147.822C147.703 36.384 147.551 35.9315 147.375 35.3331C147.302 35.0565 147.245 34.8756 147.211 34.7905C146.42 35.5703 145.573 36.1518 144.669 36.5417C143.765 36.9316 142.805 37.1294 141.783 37.1294C139.981 37.1294 138.557 36.6381 137.517 35.6548C136.478 34.6772 135.958 33.4348 135.958 31.9321C135.958 30.9432 136.195 30.0563 136.67 29.2771C137.144 28.5029 137.805 27.9046 138.664 27.4921C139.517 27.0796 140.749 26.7179 142.358 26.4074C144.528 26.0006 146.036 25.6163 146.872 25.2665V24.7977C146.872 23.8939 146.652 23.2499 146.211 22.86C145.765 22.4757 144.929 22.2835 143.703 22.2835C142.872 22.2835 142.228 22.4475 141.765 22.7805C141.296 23.1078 140.923 23.6899 140.635 24.5204H140.635ZM146.872 28.2832C146.278 28.481 145.335 28.7182 144.041 28.9948C142.753 29.2715 141.906 29.5431 141.51 29.8028C140.906 30.2378 140.601 30.7805 140.601 31.4414C140.601 32.0967 140.844 32.6562 141.329 33.1307C141.815 33.6051 142.431 33.8423 143.183 33.8423C144.019 33.8423 144.821 33.5656 145.584 33.0174C146.143 32.5936 146.515 32.0854 146.691 31.4752C146.81 31.0796 146.872 30.323 146.872 29.2095V28.2832V28.2832Z" fill="#009933"/>
<path d="M152.62 31.7412L157.298 31.0296C157.495 31.9277 157.896 32.6112 158.507 33.075C159.111 33.5437 159.964 33.7753 161.055 33.7753C162.258 33.7753 163.162 33.555 163.772 33.1144C164.179 32.8039 164.382 32.3859 164.382 31.8658C164.382 31.5153 164.269 31.2217 164.05 30.9901C163.818 30.7698 163.298 30.5608 162.496 30.3743C158.74 29.5437 156.361 28.787 155.355 28.103C153.96 27.1485 153.265 25.826 153.265 24.1374C153.265 22.6065 153.87 21.324 155.073 20.2845C156.277 19.2449 158.141 18.7254 160.666 18.7254C163.073 18.7254 164.864 19.1209 166.033 19.9058C167.202 20.6969 168.01 21.8604 168.451 23.4026L164.078 24.2162C163.892 23.5271 163.53 22.9958 163.005 22.629C162.48 22.2616 161.728 22.0807 160.75 22.0807C159.519 22.0807 158.638 22.2503 158.101 22.5946C157.745 22.8374 157.57 23.1541 157.57 23.5378C157.57 23.8714 157.723 24.1537 158.034 24.3852C158.457 24.6957 159.909 25.1306 162.395 25.6958C164.881 26.261 166.615 26.9501 167.598 27.7694C168.575 28.5943 169.061 29.7522 169.061 31.2324C169.061 32.8428 168.389 34.2322 167.039 35.3901C165.694 36.548 163.7 37.13 161.056 37.13C158.661 37.13 156.762 36.6443 155.362 35.678C153.966 34.7116 153.051 33.401 152.622 31.7406L152.62 31.7412Z" fill="#009933"/>
<path d="M181.312 36.6902V34.0578C180.668 34.9954 179.826 35.7414 178.781 36.3009C177.736 36.8549 176.634 37.1315 175.476 37.1315C174.29 37.1315 173.227 36.8717 172.289 36.3516C171.346 35.8322 170.668 35.0974 170.25 34.1598C169.826 33.2166 169.617 31.9167 169.617 30.2562V19.0986H174.261V27.2C174.261 29.6804 174.346 31.1944 174.521 31.7533C174.691 32.3128 175.001 32.7591 175.459 33.0808C175.911 33.4081 176.487 33.5721 177.187 33.5721C177.984 33.5721 178.696 33.3518 179.329 32.9168C179.961 32.4818 180.391 31.9392 180.622 31.2895C180.854 30.6399 180.973 29.0583 180.973 26.5328V19.098H185.617V36.6902H181.312V36.6902Z" fill="#009933"/>
<path d="M191.203 24.5204L187 23.775C187.474 22.0576 188.294 20.7864 189.452 19.9615C190.61 19.1366 192.333 18.7241 194.616 18.7241C196.689 18.7241 198.237 18.967 199.254 19.4583C200.266 19.9496 200.983 20.5711 201.395 21.3284C201.808 22.0857 202.017 23.4696 202.017 25.4918L201.949 30.915C201.949 32.4572 202.022 33.5988 202.169 34.333C202.317 35.0671 202.593 35.8526 203 36.6888H198.39C198.271 36.384 198.119 35.9315 197.944 35.3331C197.871 35.0565 197.814 34.8756 197.78 34.7905C196.989 35.5703 196.142 36.1518 195.238 36.5417C194.334 36.9316 193.373 37.1294 192.351 37.1294C190.549 37.1294 189.125 36.6381 188.086 35.6548C187.046 34.6772 186.527 33.4348 186.527 31.9321C186.527 30.9432 186.764 30.0563 187.238 29.2771C187.713 28.5029 188.374 27.9046 189.232 27.4921C190.086 27.0796 191.317 26.7179 192.927 26.4074C195.096 26.0006 196.605 25.6163 197.441 25.2665V24.7977C197.441 23.8939 197.221 23.2499 196.78 22.86C196.334 22.4757 195.498 22.2835 194.271 22.2835C193.441 22.2835 192.797 22.4475 192.334 22.7805C191.865 23.1078 191.492 23.6899 191.204 24.5204H191.203ZM197.44 28.2832C196.847 28.481 195.904 28.7182 194.61 28.9948C193.322 29.2715 192.475 29.5431 192.079 29.8028C191.474 30.2378 191.17 30.7805 191.17 31.4414C191.17 32.0967 191.412 32.6562 191.898 33.1307C192.384 33.6051 193 33.8423 193.751 33.8423C194.588 33.8423 195.39 33.5656 196.152 33.0174C196.712 32.5936 197.084 32.0854 197.259 31.4752C197.378 31.0796 197.44 30.323 197.44 29.2095V28.2832V28.2832Z" fill="#009933"/>
<path d="M117.98 50.12C117.633 50.12 117.33 50.05 117.07 49.91C116.817 49.77 116.62 49.56 116.48 49.28C116.34 49 116.27 48.6433 116.27 48.21C116.27 48.0767 116.277 47.9367 116.29 47.79C116.31 47.6433 116.333 47.4867 116.36 47.32C116.467 46.6933 116.633 46.18 116.86 45.78C117.087 45.38 117.363 45.0867 117.69 44.9C118.023 44.7133 118.397 44.62 118.81 44.62C119.043 44.62 119.253 44.65 119.44 44.71C119.633 44.7633 119.803 44.8533 119.95 44.98C120.097 45.1 120.213 45.2533 120.3 45.44H120.36L120.63 44.74H121.35L121.13 45.98C121.09 46.2067 121.043 46.4533 120.99 46.72C120.943 46.9867 120.897 47.2533 120.85 47.52C120.803 47.78 120.76 48.0233 120.72 48.25C120.687 48.47 120.657 48.66 120.63 48.82C120.61 48.9733 120.6 49.07 120.6 49.11C120.6 49.1967 120.623 49.2633 120.67 49.31C120.717 49.35 120.783 49.37 120.87 49.37H121.27L121.17 49.95C121.103 49.9833 121.013 50.0167 120.9 50.05C120.793 50.09 120.667 50.11 120.52 50.11C120.333 50.11 120.183 50.07 120.07 49.99C119.957 49.9033 119.88 49.78 119.84 49.62C119.827 49.5667 119.817 49.5067 119.81 49.44C119.803 49.3733 119.8 49.3067 119.8 49.24L119.74 49.22C119.52 49.5267 119.257 49.7533 118.95 49.9C118.65 50.0467 118.327 50.12 117.98 50.12ZM118.3 49.35C118.473 49.35 118.647 49.32 118.82 49.26C118.993 49.1933 119.157 49.0867 119.31 48.94C119.463 48.7933 119.6 48.6 119.72 48.36C119.84 48.1133 119.93 47.81 119.99 47.45C120.017 47.3167 120.033 47.2 120.04 47.1C120.053 46.9933 120.063 46.9 120.07 46.82C120.077 46.74 120.08 46.67 120.08 46.61C120.08 46.3433 120.04 46.12 119.96 45.94C119.887 45.7533 119.767 45.6167 119.6 45.53C119.44 45.4367 119.23 45.39 118.97 45.39C118.683 45.39 118.43 45.45 118.21 45.57C117.99 45.69 117.803 45.89 117.65 46.17C117.497 46.4433 117.377 46.81 117.29 47.27C117.263 47.4233 117.243 47.5567 117.23 47.67C117.217 47.7767 117.207 47.8733 117.2 47.96C117.193 48.04 117.19 48.1167 117.19 48.19C117.19 48.59 117.28 48.8833 117.46 49.07C117.647 49.2567 117.927 49.35 118.3 49.35ZM123.465 51.82C123.125 51.82 122.819 51.7733 122.545 51.68C122.272 51.5933 122.055 51.46 121.895 51.28C121.742 51.1067 121.665 50.8867 121.665 50.62C121.665 50.5733 121.669 50.52 121.675 50.46C121.682 50.4 121.695 50.33 121.715 50.25H122.565C122.559 50.2833 122.552 50.3133 122.545 50.34C122.545 50.3733 122.545 50.4 122.545 50.42C122.545 50.58 122.589 50.71 122.675 50.81C122.769 50.91 122.889 50.98 123.035 51.02C123.189 51.06 123.355 51.08 123.535 51.08C123.869 51.08 124.152 51.0233 124.385 50.91C124.625 50.7967 124.819 50.6233 124.965 50.39C125.112 50.1633 125.215 49.88 125.275 49.54C125.289 49.4667 125.299 49.3967 125.305 49.33C125.319 49.2567 125.332 49.1933 125.345 49.14H125.275C125.135 49.32 124.979 49.47 124.805 49.59C124.632 49.7033 124.445 49.7867 124.245 49.84C124.052 49.8933 123.852 49.92 123.645 49.92C123.292 49.92 122.985 49.8533 122.725 49.72C122.472 49.58 122.275 49.3733 122.135 49.1C121.995 48.82 121.925 48.4667 121.925 48.04C121.925 47.92 121.932 47.7933 121.945 47.66C121.959 47.52 121.979 47.3733 122.005 47.22C122.165 46.3067 122.455 45.6467 122.875 45.24C123.302 44.8267 123.825 44.62 124.445 44.62C124.819 44.62 125.135 44.6933 125.395 44.84C125.662 44.98 125.865 45.1967 126.005 45.49H126.075L126.285 44.74H126.995L126.175 49.45C126.075 50.0167 125.912 50.4733 125.685 50.82C125.465 51.1667 125.172 51.42 124.805 51.58C124.445 51.74 123.999 51.82 123.465 51.82ZM123.975 49.15C124.155 49.15 124.332 49.12 124.505 49.06C124.685 49 124.852 48.9 125.005 48.76C125.159 48.62 125.292 48.4367 125.405 48.21C125.519 47.9767 125.602 47.69 125.655 47.35C125.675 47.2167 125.692 47.1033 125.705 47.01C125.719 46.9167 125.729 46.8333 125.735 46.76C125.742 46.6867 125.745 46.6167 125.745 46.55C125.745 46.2967 125.705 46.0833 125.625 45.91C125.545 45.7367 125.422 45.6067 125.255 45.52C125.089 45.4333 124.875 45.39 124.615 45.39C124.342 45.39 124.092 45.4467 123.865 45.56C123.639 45.6733 123.445 45.86 123.285 46.12C123.125 46.38 123.009 46.73 122.935 47.17C122.915 47.3167 122.895 47.4433 122.875 47.55C122.862 47.6567 122.852 47.7467 122.845 47.82C122.845 47.8867 122.845 47.9533 122.845 48.02C122.845 48.28 122.885 48.4933 122.965 48.66C123.045 48.8267 123.169 48.95 123.335 49.03C123.509 49.11 123.722 49.15 123.975 49.15ZM127.392 50L128.312 44.74H129.002L128.952 45.59H129.002C129.082 45.4433 129.182 45.2967 129.302 45.15C129.422 44.9967 129.569 44.87 129.742 44.77C129.915 44.67 130.122 44.62 130.362 44.62C130.469 44.62 130.562 44.63 130.642 44.65C130.729 44.6633 130.792 44.68 130.832 44.7L130.692 45.51H130.352C130.139 45.51 129.942 45.55 129.762 45.63C129.582 45.71 129.425 45.82 129.292 45.96C129.159 46.1 129.049 46.27 128.962 46.47C128.875 46.67 128.812 46.89 128.772 47.13L128.272 50H127.392ZM131.792 43.75L131.962 42.77H132.842L132.672 43.75H131.792ZM130.712 50L131.642 44.74H132.522L131.592 50H130.712ZM135.148 50.12C134.695 50.12 134.315 50.05 134.008 49.91C133.702 49.77 133.472 49.5533 133.318 49.26C133.165 48.9667 133.088 48.5967 133.088 48.15C133.088 47.9767 133.095 47.8033 133.108 47.63C133.128 47.45 133.158 47.2733 133.198 47.1C133.278 46.72 133.388 46.38 133.528 46.08C133.668 45.7733 133.845 45.5133 134.058 45.3C134.272 45.08 134.522 44.9133 134.808 44.8C135.102 44.68 135.435 44.62 135.808 44.62C136.248 44.62 136.608 44.6833 136.888 44.81C137.168 44.93 137.378 45.1033 137.518 45.33C137.658 45.5567 137.728 45.8333 137.728 46.16C137.728 46.24 137.725 46.3267 137.718 46.42C137.712 46.5067 137.698 46.5967 137.678 46.69H136.798C136.812 46.6167 136.822 46.5467 136.828 46.48C136.835 46.4067 136.838 46.3367 136.838 46.27C136.838 46.07 136.802 45.9033 136.728 45.77C136.662 45.63 136.552 45.5267 136.398 45.46C136.252 45.3867 136.058 45.35 135.818 45.35C135.532 45.35 135.272 45.42 135.038 45.56C134.805 45.6933 134.608 45.9 134.448 46.18C134.288 46.4533 134.168 46.8067 134.088 47.24C134.062 47.3867 134.042 47.5133 134.028 47.62C134.015 47.7267 134.005 47.8233 133.998 47.91C133.992 47.99 133.988 48.0633 133.988 48.13C133.988 48.4233 134.032 48.6633 134.118 48.85C134.212 49.03 134.342 49.1633 134.508 49.25C134.682 49.3367 134.888 49.38 135.128 49.38C135.428 49.38 135.675 49.3267 135.868 49.22C136.068 49.1133 136.228 48.96 136.348 48.76C136.468 48.5533 136.552 48.3167 136.598 48.05H137.438C137.378 48.4567 137.255 48.8167 137.068 49.13C136.888 49.4367 136.638 49.68 136.318 49.86C136.005 50.0333 135.615 50.12 135.148 50.12ZM139.814 50.12C139.534 50.12 139.28 50.0767 139.054 49.99C138.827 49.9033 138.65 49.7667 138.524 49.58C138.397 49.3933 138.334 49.1433 138.334 48.83C138.334 48.73 138.34 48.63 138.354 48.53C138.367 48.4233 138.384 48.3133 138.404 48.2L139.014 44.74H139.894L139.294 48.16C139.287 48.24 139.277 48.3167 139.264 48.39C139.25 48.4633 139.244 48.5333 139.244 48.6C139.244 48.7933 139.28 48.9467 139.354 49.06C139.434 49.1667 139.54 49.24 139.674 49.28C139.814 49.32 139.97 49.34 140.144 49.34C140.344 49.34 140.537 49.3067 140.724 49.24C140.91 49.1733 141.084 49.0733 141.244 48.94C141.404 48.8 141.544 48.6267 141.664 48.42C141.784 48.2133 141.867 47.9733 141.914 47.7L142.434 44.74H143.324L142.394 50H141.694L141.744 49.21H141.684C141.517 49.4167 141.33 49.59 141.124 49.73C140.924 49.8633 140.714 49.96 140.494 50.02C140.274 50.0867 140.047 50.12 139.814 50.12ZM143.769 50L145.039 42.77H145.919L144.649 50H143.769ZM147.275 50.12C147.042 50.12 146.858 50.08 146.725 50C146.598 49.9267 146.505 49.83 146.445 49.71C146.392 49.59 146.365 49.45 146.365 49.29C146.365 49.2433 146.368 49.1967 146.375 49.15C146.382 49.0967 146.388 49.0433 146.395 48.99L147.005 45.48H146.325L146.455 44.74H147.145L147.575 43.27H148.265L148.005 44.74H148.995L148.865 45.48H147.885L147.295 48.79C147.288 48.83 147.278 48.8833 147.265 48.95C147.258 49.01 147.255 49.05 147.255 49.07C147.255 49.17 147.285 49.2467 147.345 49.3C147.405 49.3533 147.498 49.38 147.625 49.38H148.185L148.085 49.96C148.012 49.9933 147.928 50.02 147.835 50.04C147.742 50.06 147.645 50.0767 147.545 50.09C147.452 50.11 147.362 50.12 147.275 50.12ZM150.644 50.12C150.364 50.12 150.111 50.0767 149.884 49.99C149.657 49.9033 149.481 49.7667 149.354 49.58C149.227 49.3933 149.164 49.1433 149.164 48.83C149.164 48.73 149.171 48.63 149.184 48.53C149.197 48.4233 149.214 48.3133 149.234 48.2L149.844 44.74H150.724L150.124 48.16C150.117 48.24 150.107 48.3167 150.094 48.39C150.081 48.4633 150.074 48.5333 150.074 48.6C150.074 48.7933 150.111 48.9467 150.184 49.06C150.264 49.1667 150.371 49.24 150.504 49.28C150.644 49.32 150.801 49.34 150.974 49.34C151.174 49.34 151.367 49.3067 151.554 49.24C151.741 49.1733 151.914 49.0733 152.074 48.94C152.234 48.8 152.374 48.6267 152.494 48.42C152.614 48.2133 152.697 47.9733 152.744 47.7L153.264 44.74H154.154L153.224 50H152.524L152.574 49.21H152.514C152.347 49.4167 152.161 49.59 151.954 49.73C151.754 49.8633 151.544 49.96 151.324 50.02C151.104 50.0867 150.877 50.12 150.644 50.12ZM154.599 50L155.519 44.74H156.209L156.159 45.59H156.209C156.289 45.4433 156.389 45.2967 156.509 45.15C156.629 44.9967 156.776 44.87 156.949 44.77C157.122 44.67 157.329 44.62 157.569 44.62C157.676 44.62 157.769 44.63 157.849 44.65C157.936 44.6633 157.999 44.68 158.039 44.7L157.899 45.51H157.559C157.346 45.51 157.149 45.55 156.969 45.63C156.789 45.71 156.632 45.82 156.499 45.96C156.366 46.1 156.256 46.27 156.169 46.47C156.082 46.67 156.019 46.89 155.979 47.13L155.479 50H154.599ZM160.072 50.12C159.598 50.12 159.202 50.05 158.882 49.91C158.568 49.7633 158.332 49.5433 158.172 49.25C158.018 48.95 157.942 48.5833 157.942 48.15C157.942 47.97 157.952 47.79 157.972 47.61C157.992 47.4233 158.018 47.2467 158.052 47.08C158.152 46.6067 158.308 46.1867 158.522 45.82C158.735 45.4467 159.022 45.1533 159.382 44.94C159.748 44.7267 160.202 44.62 160.742 44.62C161.195 44.62 161.568 44.6967 161.862 44.85C162.162 44.9967 162.382 45.21 162.522 45.49C162.668 45.77 162.742 46.1133 162.742 46.52C162.742 46.6733 162.728 46.8433 162.702 47.03C162.682 47.2167 162.648 47.4033 162.602 47.59H158.892C158.878 47.69 158.865 47.7867 158.852 47.88C158.845 47.9667 158.842 48.05 158.842 48.13C158.842 48.4233 158.885 48.6633 158.972 48.85C159.065 49.0367 159.205 49.1733 159.392 49.26C159.578 49.3467 159.808 49.39 160.082 49.39C160.255 49.39 160.422 49.37 160.582 49.33C160.742 49.2833 160.888 49.2133 161.022 49.12C161.155 49.0267 161.272 48.9067 161.372 48.76C161.472 48.6067 161.548 48.4233 161.602 48.21H162.462C162.395 48.53 162.288 48.81 162.142 49.05C161.995 49.29 161.818 49.49 161.612 49.65C161.405 49.8033 161.168 49.92 160.902 50C160.642 50.08 160.365 50.12 160.072 50.12ZM159.012 46.93H161.812C161.832 46.8367 161.845 46.75 161.852 46.67C161.858 46.59 161.862 46.5133 161.862 46.44C161.862 46.1933 161.818 45.99 161.732 45.83C161.652 45.67 161.528 45.55 161.362 45.47C161.195 45.3833 160.985 45.34 160.732 45.34C160.438 45.34 160.178 45.4033 159.952 45.53C159.725 45.65 159.532 45.8267 159.372 46.06C159.218 46.2933 159.098 46.5833 159.012 46.93ZM167.61 50.12C167.15 50.12 166.763 50.05 166.45 49.91C166.137 49.7633 165.897 49.5467 165.73 49.26C165.57 48.9667 165.49 48.5967 165.49 48.15C165.49 48.0167 165.497 47.88 165.51 47.74C165.53 47.5933 165.553 47.4433 165.58 47.29C165.687 46.67 165.863 46.1667 166.11 45.78C166.357 45.3867 166.67 45.0967 167.05 44.91C167.437 44.7167 167.887 44.62 168.4 44.62C168.867 44.62 169.257 44.6933 169.57 44.84C169.883 44.98 170.12 45.1967 170.28 45.49C170.44 45.7833 170.52 46.1567 170.52 46.61C170.52 46.7367 170.513 46.87 170.5 47.01C170.487 47.15 170.467 47.2967 170.44 47.45C170.333 48.0633 170.157 48.5667 169.91 48.96C169.663 49.3533 169.35 49.6467 168.97 49.84C168.59 50.0267 168.137 50.12 167.61 50.12ZM167.65 49.38C167.983 49.38 168.273 49.3133 168.52 49.18C168.773 49.0467 168.98 48.84 169.14 48.56C169.307 48.2733 169.427 47.9133 169.5 47.48C169.527 47.3267 169.547 47.2 169.56 47.1C169.573 46.9933 169.583 46.9033 169.59 46.83C169.597 46.75 169.6 46.6767 169.6 46.61C169.6 46.3233 169.553 46.09 169.46 45.91C169.367 45.7233 169.227 45.5867 169.04 45.5C168.86 45.4067 168.63 45.36 168.35 45.36C168.017 45.36 167.727 45.43 167.48 45.57C167.233 45.7033 167.03 45.91 166.87 46.19C166.71 46.4633 166.59 46.82 166.51 47.26C166.483 47.4133 166.46 47.5433 166.44 47.65C166.427 47.7567 166.417 47.8467 166.41 47.92C166.403 47.9933 166.4 48.0633 166.4 48.13C166.4 48.4233 166.447 48.66 166.54 48.84C166.633 49.02 166.773 49.1567 166.96 49.25C167.147 49.3367 167.377 49.38 167.65 49.38ZM171.093 50L172.013 44.74H172.703L172.653 45.53H172.723C172.897 45.3233 173.083 45.1533 173.283 45.02C173.49 44.88 173.703 44.78 173.923 44.72C174.143 44.6533 174.367 44.62 174.593 44.62C174.88 44.62 175.133 44.6633 175.353 44.75C175.573 44.8367 175.747 44.9733 175.873 45.16C176 45.3467 176.063 45.5967 176.063 45.91C176.063 46.0033 176.057 46.1033 176.043 46.21C176.037 46.3167 176.023 46.4267 176.003 46.54L175.393 50H174.513L175.113 46.59C175.127 46.5033 175.137 46.4233 175.143 46.35C175.157 46.27 175.163 46.2 175.163 46.14C175.163 45.9467 175.123 45.7967 175.043 45.69C174.97 45.5833 174.867 45.51 174.733 45.47C174.6 45.4233 174.443 45.4 174.263 45.4C174.07 45.4 173.877 45.4367 173.683 45.51C173.497 45.5767 173.32 45.68 173.153 45.82C172.993 45.96 172.853 46.1367 172.733 46.35C172.613 46.5633 172.53 46.8067 172.483 47.08L171.973 50H171.093ZM180.998 50.12C180.545 50.12 180.165 50.05 179.858 49.91C179.551 49.77 179.321 49.5533 179.168 49.26C179.015 48.9667 178.938 48.5967 178.938 48.15C178.938 47.9767 178.945 47.8033 178.958 47.63C178.978 47.45 179.008 47.2733 179.048 47.1C179.128 46.72 179.238 46.38 179.378 46.08C179.518 45.7733 179.695 45.5133 179.908 45.3C180.121 45.08 180.371 44.9133 180.658 44.8C180.951 44.68 181.285 44.62 181.658 44.62C182.098 44.62 182.458 44.6833 182.738 44.81C183.018 44.93 183.228 45.1033 183.368 45.33C183.508 45.5567 183.578 45.8333 183.578 46.16C183.578 46.24 183.575 46.3267 183.568 46.42C183.561 46.5067 183.548 46.5967 183.528 46.69H182.648C182.661 46.6167 182.671 46.5467 182.678 46.48C182.685 46.4067 182.688 46.3367 182.688 46.27C182.688 46.07 182.651 45.9033 182.578 45.77C182.511 45.63 182.401 45.5267 182.248 45.46C182.101 45.3867 181.908 45.35 181.668 45.35C181.381 45.35 181.121 45.42 180.888 45.56C180.655 45.6933 180.458 45.9 180.298 46.18C180.138 46.4533 180.018 46.8067 179.938 47.24C179.911 47.3867 179.891 47.5133 179.878 47.62C179.865 47.7267 179.855 47.8233 179.848 47.91C179.841 47.99 179.838 48.0633 179.838 48.13C179.838 48.4233 179.881 48.6633 179.968 48.85C180.061 49.03 180.191 49.1633 180.358 49.25C180.531 49.3367 180.738 49.38 180.978 49.38C181.278 49.38 181.525 49.3267 181.718 49.22C181.918 49.1133 182.078 48.96 182.198 48.76C182.318 48.5533 182.401 48.3167 182.448 48.05H183.288C183.228 48.4567 183.105 48.8167 182.918 49.13C182.738 49.4367 182.488 49.68 182.168 49.86C181.855 50.0333 181.465 50.12 180.998 50.12ZM184.003 50L185.273 42.77H186.153L185.693 45.4H185.753C185.913 45.2267 186.083 45.0833 186.263 44.97C186.45 44.85 186.647 44.7633 186.853 44.71C187.067 44.65 187.283 44.62 187.503 44.62C187.79 44.62 188.043 44.6633 188.263 44.75C188.483 44.8367 188.657 44.9733 188.783 45.16C188.91 45.3467 188.973 45.5967 188.973 45.91C188.973 46.0033 188.967 46.1033 188.953 46.21C188.947 46.3167 188.933 46.4267 188.913 46.54L188.303 50H187.423L188.023 46.59C188.037 46.51 188.047 46.4333 188.053 46.36C188.067 46.28 188.073 46.2067 188.073 46.14C188.073 45.9467 188.033 45.7967 187.953 45.69C187.88 45.5833 187.777 45.51 187.643 45.47C187.51 45.4233 187.353 45.4 187.173 45.4C186.98 45.4 186.787 45.4367 186.593 45.51C186.4 45.5767 186.22 45.68 186.053 45.82C185.893 45.96 185.753 46.1367 185.633 46.35C185.52 46.5633 185.44 46.8067 185.393 47.08L184.883 50H184.003ZM191.388 50.12C191.042 50.12 190.738 50.05 190.478 49.91C190.225 49.77 190.028 49.56 189.888 49.28C189.748 49 189.678 48.6433 189.678 48.21C189.678 48.0767 189.685 47.9367 189.698 47.79C189.718 47.6433 189.742 47.4867 189.768 47.32C189.875 46.6933 190.042 46.18 190.268 45.78C190.495 45.38 190.772 45.0867 191.098 44.9C191.432 44.7133 191.805 44.62 192.218 44.62C192.452 44.62 192.662 44.65 192.848 44.71C193.042 44.7633 193.212 44.8533 193.358 44.98C193.505 45.1 193.622 45.2533 193.708 45.44H193.768L194.038 44.74H194.758L194.538 45.98C194.498 46.2067 194.452 46.4533 194.398 46.72C194.352 46.9867 194.305 47.2533 194.258 47.52C194.212 47.78 194.168 48.0233 194.128 48.25C194.095 48.47 194.065 48.66 194.038 48.82C194.018 48.9733 194.008 49.07 194.008 49.11C194.008 49.1967 194.032 49.2633 194.078 49.31C194.125 49.35 194.192 49.37 194.278 49.37H194.678L194.578 49.95C194.512 49.9833 194.422 50.0167 194.308 50.05C194.202 50.09 194.075 50.11 193.928 50.11C193.742 50.11 193.592 50.07 193.478 49.99C193.365 49.9033 193.288 49.78 193.248 49.62C193.235 49.5667 193.225 49.5067 193.218 49.44C193.212 49.3733 193.208 49.3067 193.208 49.24L193.148 49.22C192.928 49.5267 192.665 49.7533 192.358 49.9C192.058 50.0467 191.735 50.12 191.388 50.12ZM191.708 49.35C191.882 49.35 192.055 49.32 192.228 49.26C192.402 49.1933 192.565 49.0867 192.718 48.94C192.872 48.7933 193.008 48.6 193.128 48.36C193.248 48.1133 193.338 47.81 193.398 47.45C193.425 47.3167 193.442 47.2 193.448 47.1C193.462 46.9933 193.472 46.9 193.478 46.82C193.485 46.74 193.488 46.67 193.488 46.61C193.488 46.3433 193.448 46.12 193.368 45.94C193.295 45.7533 193.175 45.6167 193.008 45.53C192.848 45.4367 192.638 45.39 192.378 45.39C192.092 45.39 191.838 45.45 191.618 45.57C191.398 45.69 191.212 45.89 191.058 46.17C190.905 46.4433 190.785 46.81 190.698 47.27C190.672 47.4233 190.652 47.5567 190.638 47.67C190.625 47.7767 190.615 47.8733 190.608 47.96C190.602 48.04 190.598 48.1167 190.598 48.19C190.598 48.59 190.688 48.8833 190.868 49.07C191.055 49.2567 191.335 49.35 191.708 49.35ZM196.324 43.75L196.494 42.77H197.374L197.204 43.75H196.324ZM195.244 50L196.174 44.74H197.054L196.124 50H195.244ZM197.5 50L198.42 44.74H199.11L199.06 45.53H199.13C199.303 45.3233 199.49 45.1533 199.69 45.02C199.896 44.88 200.11 44.78 200.33 44.72C200.55 44.6533 200.773 44.62 201 44.62C201.286 44.62 201.54 44.6633 201.76 44.75C201.98 44.8367 202.153 44.9733 202.28 45.16C202.406 45.3467 202.47 45.5967 202.47 45.91C202.47 46.0033 202.463 46.1033 202.45 46.21C202.443 46.3167 202.43 46.4267 202.41 46.54L201.8 50H200.92L201.52 46.59C201.533 46.5033 201.543 46.4233 201.55 46.35C201.563 46.27 201.57 46.2 201.57 46.14C201.57 45.9467 201.53 45.7967 201.45 45.69C201.376 45.5833 201.273 45.51 201.14 45.47C201.006 45.4233 200.85 45.4 200.67 45.4C200.476 45.4 200.283 45.4367 200.09 45.51C199.903 45.5767 199.726 45.68 199.56 45.82C199.4 45.96 199.26 46.1367 199.14 46.35C199.02 46.5633 198.936 46.8067 198.89 47.08L198.38 50H197.5Z" fill="black"/>
<defs>
<linearGradient id="paint0_linear_158_1107" x1="8.66514" y1="19.6847" x2="8.66514" y2="43.608" gradientUnits="userSpaceOnUse">
<stop stop-color="#009933"/>
<stop offset="1" stop-color="#99FF00"/>
</linearGradient>
</defs>
</svg>
